<mxfile host="app.diagrams.net" agent="Mozilla/5.0 (Macintosh; Intel Mac OS X 10_15_7) AppleWebKit/605.1.15 (KHTML, like Gecko) Version/18.5 Safari/605.1.15" version="27.2.0">
  <diagram name="Pagina-1" id="0Y0WNs-yQkJqN_bYYXhA">
    <mxGraphModel dx="4203" dy="2186" grid="1" gridSize="10" guides="1" tooltips="1" connect="1" arrows="1" fold="1" page="1" pageScale="1" pageWidth="827" pageHeight="1169" math="0" shadow="0">
      <root>
        <mxCell id="0" />
        <mxCell id="1" parent="0" />
        <mxCell id="vz15OmOkXOloLzdPHNXc-1" value="&lt;p style=&quot;margin:0px;margin-top:4px;text-align:center;&quot;&gt;&lt;i&gt;&amp;lt;&amp;lt;Interface&amp;gt;&amp;gt;&lt;/i&gt;&lt;br&gt;&lt;b&gt;Model&lt;/b&gt;&lt;/p&gt;&lt;hr size=&quot;1&quot; style=&quot;border-style:solid;&quot;&gt;&lt;p style=&quot;margin:0px;margin-left:4px;&quot;&gt;+ getEntities() : Entity&lt;/p&gt;&lt;p style=&quot;margin:0px;margin-left:4px;&quot;&gt;+ update() : void&lt;/p&gt;" style="verticalAlign=top;align=left;overflow=fill;html=1;whiteSpace=wrap;rounded=1;arcSize=4;" vertex="1" parent="1">
          <mxGeometry x="-1228.5" y="-545" width="125" height="80" as="geometry" />
        </mxCell>
        <mxCell id="vz15OmOkXOloLzdPHNXc-20" style="edgeStyle=orthogonalEdgeStyle;rounded=0;orthogonalLoop=1;jettySize=auto;html=1;exitX=0;exitY=0.5;exitDx=0;exitDy=0;entryX=1;entryY=0.5;entryDx=0;entryDy=0;endSize=10;endArrow=diamond;endFill=1;" edge="1" parent="1" source="vz15OmOkXOloLzdPHNXc-2" target="vz15OmOkXOloLzdPHNXc-1">
          <mxGeometry relative="1" as="geometry" />
        </mxCell>
        <mxCell id="vz15OmOkXOloLzdPHNXc-2" value="&lt;p style=&quot;margin:0px;margin-top:4px;text-align:center;&quot;&gt;&lt;i&gt;&amp;lt;&amp;lt;Interface&amp;gt;&amp;gt;&lt;/i&gt;&lt;br&gt;&lt;b&gt;LeaderBoard&lt;/b&gt;&lt;/p&gt;&lt;hr size=&quot;1&quot; style=&quot;border-style:solid;&quot;&gt;&lt;p style=&quot;margin:0px;margin-left:4px;&quot;&gt;+ getTopScores(): List&amp;lt;Entry&amp;gt;&lt;br&gt;+ getTopScore(): Integer&lt;/p&gt;&lt;p style=&quot;margin:0px;margin-left:4px;&quot;&gt;+ addEntry(entry: Entry): Boolean&lt;/p&gt;&lt;p style=&quot;margin:0px;margin-left:4px;&quot;&gt;+ save(): Boolean&lt;/p&gt;" style="verticalAlign=top;align=left;overflow=fill;html=1;whiteSpace=wrap;rounded=1;arcSize=6;" vertex="1" parent="1">
          <mxGeometry x="-1006" y="-560" width="190" height="110" as="geometry" />
        </mxCell>
        <mxCell id="vz15OmOkXOloLzdPHNXc-22" style="edgeStyle=orthogonalEdgeStyle;rounded=0;orthogonalLoop=1;jettySize=auto;html=1;exitX=0.5;exitY=0;exitDx=0;exitDy=0;entryX=0.5;entryY=1;entryDx=0;entryDy=0;endSize=10;endArrow=diamond;endFill=1;" edge="1" parent="1" source="vz15OmOkXOloLzdPHNXc-3" target="vz15OmOkXOloLzdPHNXc-1">
          <mxGeometry relative="1" as="geometry" />
        </mxCell>
        <mxCell id="vz15OmOkXOloLzdPHNXc-3" value="&lt;p style=&quot;margin:0px;margin-top:4px;text-align:center;&quot;&gt;&lt;i&gt;&amp;lt;&amp;lt;Interface&amp;gt;&amp;gt;&lt;/i&gt;&lt;br&gt;&lt;b&gt;ModelState&lt;/b&gt;&lt;/p&gt;&lt;hr size=&quot;1&quot; style=&quot;border-style:solid;&quot;&gt;&lt;p style=&quot;margin:0px;margin-left:4px;&quot;&gt;+ onEnter() : void&lt;/p&gt;&lt;p style=&quot;margin:0px;margin-left:4px;&quot;&gt;+ onExit() : void&lt;/p&gt;&lt;p style=&quot;margin:0px;margin-left:4px;&quot;&gt;+ update() : void&lt;/p&gt;" style="verticalAlign=top;align=left;overflow=fill;html=1;whiteSpace=wrap;rounded=1;arcSize=6;" vertex="1" parent="1">
          <mxGeometry x="-1218.5" y="-407" width="105" height="90" as="geometry" />
        </mxCell>
        <mxCell id="vz15OmOkXOloLzdPHNXc-19" style="edgeStyle=orthogonalEdgeStyle;rounded=0;orthogonalLoop=1;jettySize=auto;html=1;exitX=0.5;exitY=1;exitDx=0;exitDy=0;entryX=0.5;entryY=0;entryDx=0;entryDy=0;endSize=10;endArrow=diamond;endFill=1;" edge="1" parent="1" source="vz15OmOkXOloLzdPHNXc-14" target="vz15OmOkXOloLzdPHNXc-15">
          <mxGeometry relative="1" as="geometry" />
        </mxCell>
        <mxCell id="vz15OmOkXOloLzdPHNXc-14" value="&lt;p style=&quot;margin:0px;margin-top:4px;text-align:center;&quot;&gt;&lt;i&gt;&amp;lt;&amp;lt;Interface&amp;gt;&amp;gt;&lt;/i&gt;&lt;br&gt;&lt;b&gt;Entity&lt;/b&gt;&lt;/p&gt;&lt;hr size=&quot;1&quot; style=&quot;border-style:solid;&quot;&gt;&lt;p style=&quot;margin:0px;margin-left:4px;&quot;&gt;+ getPosition() : Position&lt;/p&gt;&lt;p style=&quot;margin:0px;margin-left:4px;&quot;&gt;+ getDimension() : BoundingBox&lt;/p&gt;&lt;p style=&quot;margin:0px;margin-left:4px;&quot;&gt;+ onCollision() : void&lt;/p&gt;&lt;p style=&quot;margin:0px;margin-left:4px;&quot;&gt;+ update() : void&lt;/p&gt;" style="verticalAlign=top;align=left;overflow=fill;html=1;whiteSpace=wrap;rounded=1;arcSize=6;" vertex="1" parent="1">
          <mxGeometry x="-1596" y="-852" width="190" height="110" as="geometry" />
        </mxCell>
        <mxCell id="vz15OmOkXOloLzdPHNXc-18" value="" style="edgeStyle=orthogonalEdgeStyle;rounded=0;orthogonalLoop=1;jettySize=auto;html=1;endSize=10;endArrow=diamond;endFill=1;" edge="1" parent="1" source="vz15OmOkXOloLzdPHNXc-15" target="vz15OmOkXOloLzdPHNXc-16">
          <mxGeometry relative="1" as="geometry" />
        </mxCell>
        <mxCell id="vz15OmOkXOloLzdPHNXc-15" value="&lt;p style=&quot;margin:0px;margin-top:4px;text-align:center;&quot;&gt;&lt;i&gt;&amp;lt;&amp;lt;Interface&amp;gt;&amp;gt;&lt;/i&gt;&lt;br&gt;&lt;b&gt;EntityManager&lt;/b&gt;&lt;/p&gt;&lt;hr size=&quot;1&quot; style=&quot;border-style:solid;&quot;&gt;&lt;p style=&quot;margin:0px;margin-left:4px;&quot;&gt;+ getEntities(): List&amp;lt;Entity&amp;gt;&lt;br&gt;&lt;/p&gt;&lt;p style=&quot;margin:0px;margin-left:4px;&quot;&gt;+ loadEntities(map: List&amp;lt;String&amp;gt;, throwBarrel: Boolean): void&lt;/p&gt;&lt;p style=&quot;margin:0px;margin-left:4px;&quot;&gt;+ transformEntities() : void&lt;/p&gt;" style="verticalAlign=top;align=left;overflow=fill;html=1;whiteSpace=wrap;rounded=1;arcSize=7;" vertex="1" parent="1">
          <mxGeometry x="-1666" y="-700" width="330" height="98" as="geometry" />
        </mxCell>
        <mxCell id="vz15OmOkXOloLzdPHNXc-17" style="edgeStyle=orthogonalEdgeStyle;rounded=0;orthogonalLoop=1;jettySize=auto;html=1;exitX=0.5;exitY=1;exitDx=0;exitDy=0;entryX=0.5;entryY=0;entryDx=0;entryDy=0;endSize=10;endArrow=diamond;endFill=1;" edge="1" parent="1" source="vz15OmOkXOloLzdPHNXc-16" target="vz15OmOkXOloLzdPHNXc-1">
          <mxGeometry relative="1" as="geometry" />
        </mxCell>
        <mxCell id="vz15OmOkXOloLzdPHNXc-16" value="&lt;p style=&quot;margin:0px;margin-top:4px;text-align:center;&quot;&gt;&lt;i&gt;&amp;lt;&amp;lt;Interface&amp;gt;&amp;gt;&lt;/i&gt;&lt;br&gt;&lt;b&gt;LevelManager&lt;/b&gt;&lt;/p&gt;&lt;hr size=&quot;1&quot; style=&quot;border-style:solid;&quot;&gt;&lt;p style=&quot;margin:0px;margin-left:4px;&quot;&gt;+ getEntities(): List&amp;lt;Entity&amp;gt;&lt;br&gt;+ addEntity(Entity): Boolean&lt;/p&gt;&lt;p style=&quot;margin:0px;margin-left:4px;&quot;&gt;+ getMainCharacter(): Optional&amp;lt;MainCharacter&amp;gt;&lt;/p&gt;" style="verticalAlign=top;align=left;overflow=fill;html=1;whiteSpace=wrap;rounded=1;arcSize=7;" vertex="1" parent="1">
          <mxGeometry x="-1298.5" y="-700" width="265" height="98" as="geometry" />
        </mxCell>
        <mxCell id="vz15OmOkXOloLzdPHNXc-24" style="edgeStyle=orthogonalEdgeStyle;rounded=0;orthogonalLoop=1;jettySize=auto;html=1;exitX=0.5;exitY=1;exitDx=0;exitDy=0;entryX=0.5;entryY=0;entryDx=0;entryDy=0;endSize=10;endArrow=diamond;endFill=1;" edge="1" parent="1" source="vz15OmOkXOloLzdPHNXc-23" target="vz15OmOkXOloLzdPHNXc-16">
          <mxGeometry relative="1" as="geometry" />
        </mxCell>
        <mxCell id="vz15OmOkXOloLzdPHNXc-23" value="&lt;p style=&quot;margin:0px;margin-top:4px;text-align:center;&quot;&gt;&lt;i&gt;&amp;lt;&amp;lt;Interface&amp;gt;&amp;gt;&lt;/i&gt;&lt;br&gt;&lt;b&gt;Bonus&lt;/b&gt;&lt;/p&gt;&lt;hr size=&quot;1&quot; style=&quot;border-style:solid;&quot;&gt;&lt;p style=&quot;margin:0px;margin-left:4px;&quot;&gt;+ getBonus() : int&lt;/p&gt;&lt;p style=&quot;margin:0px;margin-left:4px;&quot;&gt;+ setBonus(value : int): int&lt;/p&gt;&lt;p style=&quot;margin:0px;margin-left:4px;&quot;&gt;+ calculateBonus() : void&lt;/p&gt;&lt;p style=&quot;margin:0px;margin-left:4px;&quot;&gt;+ resetBonus() : void&lt;/p&gt;" style="verticalAlign=top;align=left;overflow=fill;html=1;whiteSpace=wrap;rounded=1;arcSize=6;" vertex="1" parent="1">
          <mxGeometry x="-1241" y="-852" width="150" height="110" as="geometry" />
        </mxCell>
        <mxCell id="vz15OmOkXOloLzdPHNXc-26" style="edgeStyle=orthogonalEdgeStyle;rounded=0;orthogonalLoop=1;jettySize=auto;html=1;exitX=1;exitY=0.5;exitDx=0;exitDy=0;entryX=0;entryY=0.5;entryDx=0;entryDy=0;endSize=10;endArrow=diamond;endFill=1;" edge="1" parent="1" source="vz15OmOkXOloLzdPHNXc-25" target="vz15OmOkXOloLzdPHNXc-1">
          <mxGeometry relative="1" as="geometry" />
        </mxCell>
        <mxCell id="vz15OmOkXOloLzdPHNXc-25" value="&lt;p style=&quot;margin:0px;margin-top:4px;text-align:center;&quot;&gt;&lt;i&gt;&amp;lt;&amp;lt;Interface&amp;gt;&amp;gt;&lt;/i&gt;&lt;br&gt;&lt;b&gt;PhysicsEngine&lt;/b&gt;&lt;/p&gt;&lt;hr size=&quot;1&quot; style=&quot;border-style:solid;&quot;&gt;&lt;p style=&quot;margin:0px;margin-left:4px;&quot;&gt;+ updateEntity() : void&lt;/p&gt;&lt;p style=&quot;margin:0px;margin-left:4px;&quot;&gt;+ applyGravity() : void&lt;/p&gt;&lt;p style=&quot;margin:0px;margin-left:4px;&quot;&gt;+ handleCollision() : void&lt;/p&gt;&lt;p style=&quot;margin:0px;margin-left:4px;&quot;&gt;&lt;br&gt;&lt;/p&gt;" style="verticalAlign=top;align=left;overflow=fill;html=1;whiteSpace=wrap;rounded=1;arcSize=6;" vertex="1" parent="1">
          <mxGeometry x="-1576" y="-554" width="150" height="98" as="geometry" />
        </mxCell>
        <mxCell id="vz15OmOkXOloLzdPHNXc-28" style="edgeStyle=orthogonalEdgeStyle;rounded=0;orthogonalLoop=1;jettySize=auto;html=1;exitX=0.5;exitY=0;exitDx=0;exitDy=0;entryX=0.5;entryY=1;entryDx=0;entryDy=0;endSize=10;endArrow=diamond;endFill=1;" edge="1" parent="1" source="vz15OmOkXOloLzdPHNXc-27" target="vz15OmOkXOloLzdPHNXc-2">
          <mxGeometry relative="1" as="geometry" />
        </mxCell>
        <mxCell id="vz15OmOkXOloLzdPHNXc-27" value="&lt;p style=&quot;margin:0px;margin-top:4px;text-align:center;&quot;&gt;&lt;i&gt;&amp;lt;&amp;lt;Interface&amp;gt;&amp;gt;&lt;/i&gt;&lt;br&gt;&lt;b&gt;Entry&lt;/b&gt;&lt;/p&gt;&lt;hr size=&quot;1&quot; style=&quot;border-style:solid;&quot;&gt;&lt;p style=&quot;margin:0px;margin-left:4px;&quot;&gt;+ name() : String&lt;/p&gt;&lt;p style=&quot;margin:0px;margin-left:4px;&quot;&gt;+ score() : int&lt;/p&gt;" style="verticalAlign=top;align=left;overflow=fill;html=1;whiteSpace=wrap;rounded=1;arcSize=6;" vertex="1" parent="1">
          <mxGeometry x="-961" y="-397" width="100" height="80" as="geometry" />
        </mxCell>
        <mxCell id="vz15OmOkXOloLzdPHNXc-30" style="edgeStyle=orthogonalEdgeStyle;rounded=0;orthogonalLoop=1;jettySize=auto;html=1;exitX=0;exitY=0.5;exitDx=0;exitDy=0;entryX=1;entryY=0.5;entryDx=0;entryDy=0;endSize=10;endArrow=diamond;endFill=1;" edge="1" parent="1" source="vz15OmOkXOloLzdPHNXc-29" target="vz15OmOkXOloLzdPHNXc-16">
          <mxGeometry relative="1" as="geometry" />
        </mxCell>
        <mxCell id="vz15OmOkXOloLzdPHNXc-29" value="&lt;p style=&quot;margin:0px;margin-top:4px;text-align:center;&quot;&gt;&lt;i&gt;&amp;lt;&amp;lt;Interface&amp;gt;&amp;gt;&lt;/i&gt;&lt;br&gt;&lt;b&gt;MapsManager&lt;/b&gt;&lt;/p&gt;&lt;hr size=&quot;1&quot; style=&quot;border-style:solid;&quot;&gt;&lt;p style=&quot;margin:0px;margin-left:4px;&quot;&gt;+ currentMap() : List&amp;lt;String&amp;gt;&lt;/p&gt;&lt;p style=&quot;margin:0px;margin-left:4px;&quot;&gt;+ shouldAdvance() : boolean&lt;/p&gt;&lt;p style=&quot;margin:0px;margin-left:4px;&quot;&gt;+ canDonkeyThrow() : boolean&lt;/p&gt;" style="verticalAlign=top;align=left;overflow=fill;html=1;whiteSpace=wrap;rounded=1;arcSize=7;" vertex="1" parent="1">
          <mxGeometry x="-996" y="-698" width="170" height="94" as="geometry" />
        </mxCell>
      </root>
    </mxGraphModel>
  </diagram>
</mxfile>
